<svg width="266" height="42" viewBox="0 0 266 42" fill="none" xmlns="http://www.w3.org/2000/svg">
<path d="M11.82 42H2.985C2.263 42 1.731 41.848 1.389 41.544C1.085 41.202 0.933 40.67 0.933 39.948V3.012C0.933 2.29 1.085 1.777 1.389 1.473C1.731 1.131 2.263 0.959998 2.985 0.959998H11.82C12.542 0.959998 13.055 1.131 13.359 1.473C13.701 1.777 13.872 2.29 13.872 3.012V15.381H23.391V3.012C23.391 2.29 23.543 1.777 23.847 1.473C24.189 1.131 24.721 0.959998 25.443 0.959998H34.278C35 0.959998 35.513 1.131 35.817 1.473C36.159 1.777 36.33 2.29 36.33 3.012V39.948C36.33 40.67 36.159 41.202 35.817 41.544C35.513 41.848 35 42 34.278 42H25.443C24.721 42 24.189 41.848 23.847 41.544C23.543 41.202 23.391 40.67 23.391 39.948V27.294H13.872V39.948C13.872 40.67 13.701 41.202 13.359 41.544C13.055 41.848 12.542 42 11.82 42ZM59.061 12.93L56.382 21.594H65.331L62.652 12.93C62.5 12.588 62.329 12.341 62.139 12.189C61.987 12.037 61.797 11.961 61.569 11.961H60.144C59.916 11.961 59.707 12.037 59.517 12.189C59.365 12.341 59.213 12.588 59.061 12.93ZM55.812 39.948C55.812 40.67 55.641 41.202 55.299 41.544C54.995 41.848 54.482 42 53.76 42H45.381C44.659 42 44.127 41.848 43.785 41.544C43.481 41.202 43.329 40.67 43.329 39.948V24.9C43.329 23.76 43.5 22.449 43.842 20.967C44.222 19.485 44.792 17.756 45.552 15.78L50.511 2.841C50.739 2.195 51.081 1.72 51.537 1.416C52.031 1.112 52.658 0.959998 53.418 0.959998H68.751C69.473 0.959998 70.062 1.112 70.518 1.416C71.012 1.72 71.373 2.195 71.601 2.841L76.56 15.78C77.32 17.756 77.871 19.485 78.213 20.967C78.593 22.449 78.783 23.76 78.783 24.9V39.948C78.783 40.67 78.612 41.202 78.27 41.544C77.966 41.848 77.453 42 76.731 42H68.124C67.364 42 66.794 41.848 66.414 41.544C66.072 41.202 65.901 40.67 65.901 39.948V31.968H55.812V39.948ZM116.886 42H87.8727C87.1507 42 86.6187 41.848 86.2767 41.544C85.9727 41.202 85.8207 40.67 85.8207 39.948V3.012C85.8207 2.29 85.9727 1.777 86.2767 1.473C86.6187 1.131 87.1507 0.959998 87.8727 0.959998H96.7077C97.4297 0.959998 97.9427 1.131 98.2467 1.473C98.5887 1.777 98.7597 2.29 98.7597 3.012V31.227H106.569V21.993C106.569 21.271 106.721 20.758 107.025 20.454C107.367 20.112 107.899 19.941 108.621 19.941H116.886C117.608 19.941 118.121 20.112 118.425 20.454C118.767 20.758 118.938 21.271 118.938 21.993V39.948C118.938 40.67 118.767 41.202 118.425 41.544C118.121 41.848 117.608 42 116.886 42ZM136.341 42H127.506C126.784 42 126.252 41.848 125.91 41.544C125.606 41.202 125.454 40.67 125.454 39.948V3.012C125.454 2.29 125.606 1.777 125.91 1.473C126.252 1.131 126.784 0.959998 127.506 0.959998H152.928C153.65 0.959998 154.163 1.131 154.467 1.473C154.809 1.777 154.98 2.29 154.98 3.012V9.795C154.98 10.517 154.809 11.049 154.467 11.391C154.163 11.695 153.65 11.847 152.928 11.847H138.393V17.775H148.311C149.033 17.775 149.546 17.946 149.85 18.288C150.192 18.592 150.363 19.105 150.363 19.827V26.667C150.363 27.389 150.192 27.921 149.85 28.263C149.546 28.567 149.033 28.719 148.311 28.719H138.393V39.948C138.393 40.67 138.222 41.202 137.88 41.544C137.576 41.848 137.063 42 136.341 42ZM171.576 42H162.741C162.019 42 161.487 41.848 161.145 41.544C160.841 41.202 160.689 40.67 160.689 39.948V3.012C160.689 2.29 160.841 1.777 161.145 1.473C161.487 1.131 162.019 0.959998 162.741 0.959998H188.163C188.885 0.959998 189.398 1.131 189.702 1.473C190.044 1.777 190.215 2.29 190.215 3.012V9.795C190.215 10.517 190.044 11.049 189.702 11.391C189.398 11.695 188.885 11.847 188.163 11.847H173.628V17.775H183.546C184.268 17.775 184.781 17.946 185.085 18.288C185.427 18.592 185.598 19.105 185.598 19.827V26.667C185.598 27.389 185.427 27.921 185.085 28.263C184.781 28.567 184.268 28.719 183.546 28.719H173.628V39.948C173.628 40.67 173.457 41.202 173.115 41.544C172.811 41.848 172.298 42 171.576 42ZM197.064 42C196.342 42 195.81 41.848 195.468 41.544C195.164 41.202 195.012 40.67 195.012 39.948V33.165C195.012 32.443 195.164 31.93 195.468 31.626C195.81 31.284 196.342 31.113 197.064 31.113H202.707V11.961H197.064C196.342 11.961 195.81 11.809 195.468 11.505C195.164 11.163 195.012 10.631 195.012 9.909V3.012C195.012 2.29 195.164 1.777 195.468 1.473C195.81 1.131 196.342 0.959998 197.064 0.959998H221.346C222.068 0.959998 222.581 1.131 222.885 1.473C223.227 1.777 223.398 2.29 223.398 3.012V9.909C223.398 10.631 223.227 11.163 222.885 11.505C222.581 11.809 222.068 11.961 221.346 11.961H215.817V31.113H221.346C222.068 31.113 222.581 31.284 222.885 31.626C223.227 31.93 223.398 32.443 223.398 33.165V39.948C223.398 40.67 223.227 41.202 222.885 41.544C222.581 41.848 222.068 42 221.346 42H197.064ZM241.038 42H232.488C231.766 42 231.234 41.848 230.892 41.544C230.588 41.202 230.436 40.67 230.436 39.948V3.012C230.436 2.29 230.588 1.777 230.892 1.473C231.234 1.131 231.766 0.959998 232.488 0.959998H238.416C239.138 0.959998 239.746 1.074 240.24 1.302C240.772 1.53 241.285 1.929 241.779 2.499L252.837 15.153V3.012C252.837 2.29 252.989 1.777 253.293 1.473C253.635 1.131 254.167 0.959998 254.889 0.959998H263.439C264.161 0.959998 264.674 1.131 264.978 1.473C265.32 1.777 265.491 2.29 265.491 3.012V39.948C265.491 40.67 265.32 41.202 264.978 41.544C264.674 41.848 264.161 42 263.439 42H254.889C254.167 42 253.635 41.848 253.293 41.544C252.989 41.202 252.837 40.67 252.837 39.948V32.937L243.09 21.138V39.948C243.09 40.67 242.919 41.202 242.577 41.544C242.273 41.848 241.76 42 241.038 42Z" fill="white"/>
</svg>
