<svg width="122" height="115" viewBox="0 0 122 115" fill="none" xmlns="http://www.w3.org/2000/svg">
<g filter="url(#filter0_d_41_62)">
<circle cx="59.068" cy="54.3636" r="41.8864" stroke="white" stroke-width="3" shape-rendering="crispEdges"/>
</g>
<path d="M87.5569 59.5909C85.7274 48.178 76.1615 25.5614 52.5342 26.3977" stroke="white"/>
<path d="M61.4199 83.375C36.6775 73.6174 -4.3909 50.025 27.1818 26.3977M31.3632 45.2159C19.2533 51.8371 -0.00021667 85.2045 31.363 87.5568M56.7154 50.1818C62.0298 49.2235 74.9063 44.7977 83.8972 34.7614M73.4427 20.125C77.973 15.7689 86.7199 9.67046 85.4654 20.125" stroke="white"/>
<path d="M36.3299 62.2046C35.6329 67.3447 35.7026 78.775 41.5571 83.375M65.8641 84.9432C73.7921 95.4849 89.23 110.818 87.5572 87.8182" stroke="white"/>
<g filter="url(#filter1_d_41_62)">
<circle cx="49.9199" cy="25.3523" r="2.875" fill="white"/>
<circle cx="54.1016" cy="49.9204" r="2.875" fill="white"/>
<circle cx="87.5566" cy="62.4659" r="2.875" fill="white"/>
<circle cx="85.9883" cy="32.6704" r="2.875" fill="white"/>
<circle cx="71.875" cy="22.7386" r="2.875" fill="white"/>
<circle cx="34.2383" cy="44.1704" r="2.875" fill="white"/>
<circle cx="36.8516" cy="59.3296" r="2.875" fill="white"/>
<circle cx="44.1699" cy="84.9432" r="2.875" fill="white"/>
<circle cx="63.5107" cy="83.8977" r="2.875" fill="white"/>
</g>
<defs>
<filter id="filter0_d_41_62" x="11.6816" y="10.9773" width="94.7729" height="94.7727" filterUnits="userSpaceOnUse" color-interpolation-filters="sRGB">
<feFlood flood-opacity="0" result="BackgroundImageFix"/>
<feColorMatrix in="SourceAlpha" type="matrix" values="0 0 0 0 0 0 0 0 0 0 0 0 0 0 0 0 0 0 127 0" result="hardAlpha"/>
<feOffset dy="4"/>
<feGaussianBlur stdDeviation="2"/>
<feComposite in2="hardAlpha" operator="out"/>
<feColorMatrix type="matrix" values="0 0 0 0 0 0 0 0 0 0 0 0 0 0 0 0 0 0 0.25 0"/>
<feBlend mode="normal" in2="BackgroundImageFix" result="effect1_dropShadow_41_62"/>
<feBlend mode="normal" in="SourceGraphic" in2="effect1_dropShadow_41_62" result="shape"/>
</filter>
<filter id="filter1_d_41_62" x="27.3633" y="19.8636" width="67.0684" height="75.9545" filterUnits="userSpaceOnUse" color-interpolation-filters="sRGB">
<feFlood flood-opacity="0" result="BackgroundImageFix"/>
<feColorMatrix in="SourceAlpha" type="matrix" values="0 0 0 0 0 0 0 0 0 0 0 0 0 0 0 0 0 0 127 0" result="hardAlpha"/>
<feOffset dy="4"/>
<feGaussianBlur stdDeviation="2"/>
<feComposite in2="hardAlpha" operator="out"/>
<feColorMatrix type="matrix" values="0 0 0 0 0 0 0 0 0 0 0 0 0 0 0 0 0 0 0.25 0"/>
<feBlend mode="normal" in2="BackgroundImageFix" result="effect1_dropShadow_41_62"/>
<feBlend mode="normal" in="SourceGraphic" in2="effect1_dropShadow_41_62" result="shape"/>
</filter>
</defs>
</svg>
